<svg width="16" height="6" viewBox="0 0 16 6" fill="none" xmlns="http://www.w3.org/2000/svg">
<path d="M14.5455 2.27264C13.0909 2.27264 12.3636 0.0908203 10.1818 0.0908203C8 0.0908203 8 1.54537 8 1.54537C8 1.54537 8 0.0908203 5.81818 0.0908203C3.63636 0.0908203 2.90909 2.27264 1.45455 2.27264C0.727273 2.27264 0 1.54537 0 1.54537C0 1.54537 0.727273 5.18173 3.63636 5.18173C7.27273 5.18173 8 2.99991 8 2.99991C8 2.99991 8.72727 5.18173 12.3636 5.18173C15.2727 5.18173 16 1.54537 16 1.54537C16 1.54537 15.2727 2.27264 14.5455 2.27264Z" fill="white"/>
</svg>
